<svg  viewBox="0 0 100 100" xmlns="http://www.w3.org/2000/svg"><path style="fill:#427794;stroke:#2a424f" d="M22 43c-4 5-15.5 2-17.8 13C2 62 2 81 14 79c-1-15-2-22-2-22s1 14 2 21c9 4 24 4 35-1 0-8-1-13 0-18v19s6 2 8-5c3-10 5-24-9-28-9-1-7-2-8-2z"/><path style="fill:#c29b82;stroke:#693311" d="M23 38s1 3-1 5c3 4 11 8 18 0-1-2-1-2-1-5z"/><path style="fill:#cda68e;stroke:#693311" d="M31 42C17 42 7.6 4.8 31 4.2 55 4.1 44 42 31 42z"/><path style="fill:#553932;stroke:#311710" d="M17 26C14 16 14 3.2 31 2.4 44 3.1 49 15 44 26c0-5 1-7-1-10-4-1-10 0-15-5-1 4-13 2-11 15z"/><path style="fill:#5f3e20;stroke:#311710" d="M45 65c5-8 0-25 3-31 3-10 7-16 16-16 10 0 16 8 20 17 1 2 0 6 2 11 1 4-1 8-1 10 0 5-1 3 2 9-5 13-34 10-42 0z"/><path style="fill:#d8933b;stroke:#2a424f" d="M58 60c-5 5-18 3-20 13-2 6-1 25 11 24-1-16-3-23-3-23s2 15 3 21c9 5 23 5 35-1 0-6-1-13 0-18s0 20 0 20 7 1 9-6c2-9 4-22-7-25-9-3-10-5-12-5z"/><path style="fill:#deb89f;stroke:#693311" d="M58 54s1 3 0 7c3 3 10 8 16 0-1-4-1-4-1-7z"/><path style="fill:#dbbfa8;stroke:#693311" d="M66 59c-14 0-23-38 0-39 20 1 13 39 0 39z"/><path style="fill:#5f3e20" d="M63 27c-3 5-7 8-12 9-4 1 2-17 13-17 5 0 13 3 15 15-6 1-14-5-16-7"/></svg>