<svg  viewBox="0 0 48 48" fill="none" xmlns="http://www.w3.org/2000/svg"><circle cx="24" cy="24" r="20" fill="#C13584"/><path d="M24 14.162c3.204 0 3.584.012 4.849.07 1.17.054 1.805.249 2.228.413.56.218.96.478 1.38.898s.68.82.898 1.38c.164.423.36 1.058.413 2.228.058 1.265.07 1.645.07 4.849s-.012 3.584-.07 4.849c-.053 1.17-.249 1.805-.413 2.228-.218.56-.478.96-.898 1.38s-.82.68-1.38.898c-.423.164-1.058.36-2.228.413-1.265.057-1.645.07-4.849.07s-3.584-.013-4.849-.07c-1.17-.054-1.805-.249-2.228-.413a3.7 3.7 0 0 1-1.38-.898c-.42-.42-.68-.82-.898-1.38-.164-.423-.36-1.058-.413-2.228-.058-1.265-.07-1.645-.07-4.85 0-3.203.012-3.583.07-4.848.054-1.17.249-1.805.413-2.228.218-.56.478-.96.898-1.38s.82-.68 1.38-.898c.423-.164 1.058-.36 2.228-.413 1.265-.058 1.645-.07 4.849-.07M24 12c-3.259 0-3.668.014-4.948.072-1.277.059-2.15.261-2.912.558a5.9 5.9 0 0 0-2.126 1.384 5.9 5.9 0 0 0-1.384 2.126c-.297.763-.5 1.635-.558 2.912C12.014 20.332 12 20.741 12 24s.014 3.668.072 4.948c.059 1.277.261 2.15.558 2.912.307.79.717 1.459 1.384 2.126a5.9 5.9 0 0 0 2.126 1.384c.763.297 1.635.5 2.912.558 1.28.058 1.689.072 4.948.072s3.668-.014 4.948-.072c1.277-.059 2.15-.261 2.912-.558a5.9 5.9 0 0 0 2.126-1.384 5.9 5.9 0 0 0 1.384-2.126c.297-.763.5-1.635.558-2.912.058-1.28.072-1.689.072-4.948s-.014-3.668-.072-4.948c-.058-1.277-.261-2.15-.558-2.912a5.9 5.9 0 0 0-1.384-2.126 5.9 5.9 0 0 0-2.125-1.384c-.764-.297-1.636-.5-2.913-.558C27.668 12.014 27.259 12 24 12" fill="#fff"/><path d="M24.006 17.843a6.162 6.162 0 1 0 0 12.324 6.162 6.162 0 0 0 0-12.324m0 10.162a4 4 0 1 1 0-8 4 4 0 0 1 0 8m7.844-10.409a1.44 1.44 0 1 1-2.88 0 1.44 1.44 0 0 1 2.88 0" fill="#fff"/></svg>